<svg width="193" height="67" viewBox="0 0 193 67" fill="none" xmlns="http://www.w3.org/2000/svg">
<g filter="url(#filter0_d)">
<path d="M44.875 1.125V43H39.25V12.6875L26.3125 26.5H24.8125L11.5625 12.6875V43H5.9375V1.125H7.6875L25.5625 20.3125L43.125 1.125H44.875ZM71.1875 11.125C74.3542 11.125 77.1667 11.875 79.625 13.375C82.0833 14.875 84 16.875 85.375 19.375C86.7917 21.875 87.5 24.6042 87.5 27.5625C87.5 30.5208 86.7917 33.25 85.375 35.75C84 38.2083 82.0833 40.1875 79.625 41.6875C77.1667 43.1875 74.3542 43.9375 71.1875 43.9375C68.0208 43.9375 65.2083 43.1875 62.75 41.6875C60.2917 40.1875 58.3542 38.2083 56.9375 35.75C55.5625 33.25 54.875 30.5208 54.875 27.5625C54.875 24.6042 55.5625 21.875 56.9375 19.375C58.3542 16.875 60.2917 14.875 62.75 13.375C65.2083 11.875 68.0208 11.125 71.1875 11.125ZM71.1875 16.125C68.9792 16.125 67.0417 16.6667 65.375 17.75C63.7083 18.7917 62.4167 20.1875 61.5 21.9375C60.625 23.6458 60.1875 25.5208 60.1875 27.5625C60.1875 29.5625 60.625 31.4375 61.5 33.1875C62.4167 34.8958 63.7083 36.2917 65.375 37.375C67.0417 38.4167 68.9792 38.9375 71.1875 38.9375C73.4375 38.9375 75.375 38.4167 77 37.375C78.6667 36.2917 79.9375 34.8958 80.8125 33.1875C81.7292 31.4375 82.1875 29.5625 82.1875 27.5625C82.1875 25.5208 81.7292 23.6458 80.8125 21.9375C79.9375 20.1875 78.6667 18.7917 77 17.75C75.375 16.6667 73.4375 16.125 71.1875 16.125ZM101.062 11.75V18C102.271 15.9167 103.729 14.25 105.438 13C107.146 11.75 108.896 11.125 110.688 11.125C111.896 11.125 112.979 11.3333 113.938 11.75V17.6875C112.604 16.8958 111.271 16.5 109.938 16.5C107.812 16.5 106.083 17.25 104.75 18.75C103.458 20.25 102.229 22.0417 101.062 24.125V43H95.9375V11.75H101.062ZM136.375 11.125C139.083 11.125 141.521 11.7917 143.688 13.125C145.896 14.4167 147.646 16.25 148.938 18.625C150.271 20.9583 150.938 23.7083 150.938 26.875C150.938 30.2917 150.271 33.2917 148.938 35.875C147.646 38.4167 145.854 40.3958 143.562 41.8125C141.312 43.2292 138.75 43.9375 135.875 43.9375C134.083 43.9375 132.25 43.4583 130.375 42.5C128.542 41.5417 126.958 40.3125 125.625 38.8125V58H120.5V11.75H125.625V17.0625C126.708 15.3958 128.167 14 130 12.875C131.875 11.7083 134 11.125 136.375 11.125ZM135.562 16.125C133.688 16.125 131.979 16.6042 130.438 17.5625C128.938 18.5208 127.75 19.8542 126.875 21.5625C126.042 23.2292 125.625 25.1875 125.625 27.4375L125.688 33.4375C127.021 35.0625 128.417 36.3958 129.875 37.4375C131.333 38.4375 133.021 38.9375 134.938 38.9375C137.188 38.9375 139.104 38.3542 140.688 37.1875C142.271 36.0208 143.479 34.5208 144.312 32.6875C145.188 30.8125 145.625 28.875 145.625 26.875C145.625 24.8333 145.208 23.0208 144.375 21.4375C143.542 19.8125 142.375 18.5208 140.875 17.5625C139.375 16.6042 137.604 16.125 135.562 16.125ZM172.25 11.125C174.042 11.125 175.854 11.5625 177.688 12.4375C179.562 13.2708 181.167 14.4375 182.5 15.9375V11.75H187.625V43H182.5V37.6875C181.417 39.3542 179.938 40.8125 178.062 42.0625C176.229 43.3125 174.125 43.9375 171.75 43.9375C169.083 43.9375 166.646 43.2708 164.438 41.9375C162.229 40.5625 160.458 38.6667 159.125 36.25C157.833 33.8333 157.188 31.0417 157.188 27.875C157.188 24.4167 157.833 21.4375 159.125 18.9375C160.458 16.4375 162.271 14.5208 164.562 13.1875C166.854 11.8125 169.417 11.125 172.25 11.125ZM173.188 16.125C170.938 16.125 169.021 16.6875 167.438 17.8125C165.854 18.9375 164.625 20.3958 163.75 22.1875C162.917 23.9375 162.5 25.8333 162.5 27.875C162.5 29.875 162.917 31.7292 163.75 33.4375C164.583 35.1042 165.75 36.4375 167.25 37.4375C168.792 38.4375 170.562 38.9375 172.562 38.9375C174.479 38.9375 176.188 38.4375 177.688 37.4375C179.188 36.4375 180.375 35.0625 181.25 33.3125C182.125 31.5208 182.542 29.5208 182.5 27.3125L182.438 21.3125C181.146 19.6875 179.75 18.4167 178.25 17.5C176.792 16.5833 175.104 16.125 173.188 16.125Z" fill="black"/>
<path d="M44.875 1.125H45.875V0.125H44.875V1.125ZM44.875 43V44H45.875V43H44.875ZM39.25 43H38.25V44H39.25V43ZM39.25 12.6875H40.25V10.157L38.5202 12.0039L39.25 12.6875ZM26.3125 26.5V27.5H26.746L27.0423 27.1836L26.3125 26.5ZM24.8125 26.5L24.0909 27.1923L24.3861 27.5H24.8125V26.5ZM11.5625 12.6875L12.2841 11.9952L10.5625 10.2005V12.6875H11.5625ZM11.5625 43V44H12.5625V43H11.5625ZM5.9375 43H4.9375V44H5.9375V43ZM5.9375 1.125V0.125H4.9375V1.125H5.9375ZM7.6875 1.125L8.41919 0.443361L8.1226 0.125H7.6875V1.125ZM25.5625 20.3125L24.8308 20.9941L25.569 21.7865L26.3002 20.9877L25.5625 20.3125ZM43.125 1.125V0.125H42.6847L42.3873 0.44982L43.125 1.125ZM43.875 1.125V43H45.875V1.125H43.875ZM44.875 42H39.25V44H44.875V42ZM40.25 43V12.6875H38.25V43H40.25ZM38.5202 12.0039L25.5827 25.8164L27.0423 27.1836L39.9798 13.3711L38.5202 12.0039ZM26.3125 25.5H24.8125V27.5H26.3125V25.5ZM25.5341 25.8077L12.2841 11.9952L10.8409 13.3798L24.0909 27.1923L25.5341 25.8077ZM10.5625 12.6875V43H12.5625V12.6875H10.5625ZM11.5625 42H5.9375V44H11.5625V42ZM6.9375 43V1.125H4.9375V43H6.9375ZM5.9375 2.125H7.6875V0.125H5.9375V2.125ZM6.95581 1.80664L24.8308 20.9941L26.2942 19.6309L8.41919 0.443361L6.95581 1.80664ZM26.3002 20.9877L43.8627 1.80018L42.3873 0.44982L24.8248 19.6373L26.3002 20.9877ZM43.125 2.125H44.875V0.125H43.125V2.125ZM85.375 19.375L84.4987 19.857L84.505 19.868L85.375 19.375ZM85.375 35.75L84.505 35.257L84.5022 35.2618L85.375 35.75ZM56.9375 35.75L56.0613 36.2319L56.0661 36.2407L56.0711 36.2493L56.9375 35.75ZM56.9375 19.375L56.0674 18.8819L56.0613 18.8931L56.9375 19.375ZM65.375 17.75L65.905 18.598L65.9125 18.5933L65.92 18.5884L65.375 17.75ZM61.5 21.9375L60.6141 21.4735L60.61 21.4816L61.5 21.9375ZM61.5 33.1875L60.6056 33.6347L60.612 33.6476L60.6188 33.6603L61.5 33.1875ZM65.375 37.375L64.83 38.2134L64.8375 38.2183L64.845 38.223L65.375 37.375ZM77 37.375L77.5397 38.2169L77.545 38.2134L77 37.375ZM80.8125 33.1875L79.9266 32.7235L79.9225 32.7316L80.8125 33.1875ZM80.8125 21.9375L79.9181 22.3847L79.9245 22.3976L79.9313 22.4103L80.8125 21.9375ZM77 17.75L76.4453 18.5821L76.4575 18.5902L76.47 18.598L77 17.75ZM71.1875 12.125C74.1893 12.125 76.8181 12.8337 79.1041 14.2286L80.1459 12.5214C77.5153 10.9163 74.519 10.125 71.1875 10.125V12.125ZM79.1041 14.2286C81.4151 15.6387 83.2086 17.5112 84.4988 19.8569L86.2512 18.8931C84.7914 16.2388 82.7516 14.1113 80.1459 12.5214L79.1041 14.2286ZM84.505 19.868C85.8339 22.2131 86.5 24.7716 86.5 27.5625H88.5C88.5 24.4367 87.7495 21.5369 86.245 18.882L84.505 19.868ZM86.5 27.5625C86.5 30.3534 85.8339 32.9119 84.505 35.257L86.245 36.243C87.7495 33.5881 88.5 30.6883 88.5 27.5625H86.5ZM84.5022 35.2618C83.2131 37.5667 81.4191 39.4213 79.1041 40.8339L80.1459 42.5411C82.7475 40.9537 84.7869 38.85 86.2478 36.2382L84.5022 35.2618ZM79.1041 40.8339C76.8181 42.2288 74.1893 42.9375 71.1875 42.9375V44.9375C74.519 44.9375 77.5153 44.1462 80.1459 42.5411L79.1041 40.8339ZM71.1875 42.9375C68.1857 42.9375 65.5569 42.2288 63.2709 40.8339L62.2291 42.5411C64.8597 44.1462 67.856 44.9375 71.1875 44.9375V42.9375ZM63.2709 40.8339C60.9534 39.4198 59.1356 37.5616 57.8039 35.2507L56.0711 36.2493C57.5727 38.8551 59.63 40.9552 62.2291 42.5411L63.2709 40.8339ZM57.8137 35.2681C56.523 32.9213 55.875 30.3588 55.875 27.5625H53.875C53.875 30.6829 54.602 33.5787 56.0613 36.2319L57.8137 35.2681ZM55.875 27.5625C55.875 24.7662 56.523 22.2037 57.8137 19.8569L56.0613 18.8931C54.602 21.5463 53.875 24.4421 53.875 27.5625H55.875ZM57.8075 19.868C59.1402 17.5163 60.9573 15.6403 63.2709 14.2286L62.2291 12.5214C59.626 14.1097 57.5682 16.2337 56.0675 18.882L57.8075 19.868ZM63.2709 14.2286C65.5569 12.8337 68.1857 12.125 71.1875 12.125V10.125C67.856 10.125 64.8597 10.9163 62.2291 12.5214L63.2709 14.2286ZM71.1875 15.125C68.8079 15.125 66.6766 15.7113 64.83 16.9116L65.92 18.5884C67.4068 17.622 69.1504 17.125 71.1875 17.125V15.125ZM64.845 16.902C63.0269 18.0383 61.6128 19.567 60.6142 21.4735L62.3858 22.4015C63.2205 20.808 64.3898 19.545 65.905 18.598L64.845 16.902ZM60.61 21.4816C59.6581 23.34 59.1875 25.3727 59.1875 27.5625H61.1875C61.1875 25.669 61.5919 23.9517 62.39 22.3934L60.61 21.4816ZM59.1875 27.5625C59.1875 29.7142 59.6596 31.7427 60.6056 33.6347L62.3944 32.7403C61.5904 31.1323 61.1875 29.4108 61.1875 27.5625H59.1875ZM60.6188 33.6603C61.6171 35.5207 63.026 37.0409 64.83 38.2134L65.92 36.5366C64.3906 35.5425 63.2162 34.2709 62.3812 32.7147L60.6188 33.6603ZM64.845 38.223C66.6897 39.3759 68.8156 39.9375 71.1875 39.9375V37.9375C69.1428 37.9375 67.3937 37.4574 65.905 36.527L64.845 38.223ZM71.1875 39.9375C73.5965 39.9375 75.7284 39.3779 77.5397 38.2169L76.4603 36.5331C75.0216 37.4554 73.2785 37.9375 71.1875 37.9375V39.9375ZM77.545 38.2134C79.3527 37.0385 80.745 35.5129 81.7025 33.6434L79.9225 32.7316C79.13 34.2788 77.9807 35.5449 76.455 36.5366L77.545 38.2134ZM81.6983 33.6515C82.691 31.7565 83.1875 29.722 83.1875 27.5625H81.1875C81.1875 29.403 80.7674 31.1185 79.9267 32.7235L81.6983 33.6515ZM83.1875 27.5625C83.1875 25.3649 82.6925 23.3262 81.6937 21.4647L79.9313 22.4103C80.7658 23.9655 81.1875 25.6768 81.1875 27.5625H83.1875ZM81.7069 21.4903C80.7492 19.5749 79.352 18.0407 77.53 16.902L76.47 18.598C77.9814 19.5426 79.1258 20.8001 79.9181 22.3847L81.7069 21.4903ZM77.5547 16.9179C75.7415 15.7092 73.6041 15.125 71.1875 15.125V17.125C73.2709 17.125 75.0085 17.6242 76.4453 18.5821L77.5547 16.9179ZM101.062 11.75H102.062V10.75H101.062V11.75ZM101.062 18H100.062V21.7173L101.928 18.5017L101.062 18ZM113.938 11.75H114.938V11.0944L114.336 10.8329L113.938 11.75ZM113.938 17.6875L113.427 18.5474L114.938 19.4442V17.6875H113.938ZM104.75 18.75L104.003 18.0856L103.997 18.0915L103.992 18.0975L104.75 18.75ZM101.062 24.125L100.19 23.6364L100.062 23.8641V24.125H101.062ZM101.062 43V44H102.062V43H101.062ZM95.9375 43H94.9375V44H95.9375V43ZM95.9375 11.75V10.75H94.9375V11.75H95.9375ZM100.062 11.75V18H102.062V11.75H100.062ZM101.928 18.5017C103.076 16.5216 104.446 14.9648 106.028 13.807L104.847 12.193C103.013 13.5352 101.466 15.3117 100.197 17.4983L101.928 18.5017ZM106.028 13.807C107.597 12.659 109.145 12.125 110.688 12.125V10.125C108.647 10.125 106.695 10.841 104.847 12.193L106.028 13.807ZM110.688 12.125C111.78 12.125 112.724 12.313 113.539 12.6671L114.336 10.8329C113.234 10.3537 112.012 10.125 110.688 10.125V12.125ZM112.938 11.75V17.6875H114.938V11.75H112.938ZM114.448 16.8276C112.986 15.9594 111.478 15.5 109.938 15.5V17.5C111.064 17.5 112.223 17.8323 113.427 18.5474L114.448 16.8276ZM109.938 15.5C107.546 15.5 105.538 16.3583 104.003 18.0856L105.497 19.4144C106.629 18.1417 108.079 17.5 109.938 17.5V15.5ZM103.992 18.0975C102.649 19.6572 101.383 21.5062 100.19 23.6364L101.935 24.6136C103.075 22.5771 104.268 20.8428 105.508 19.4025L103.992 18.0975ZM100.062 24.125V43H102.062V24.125H100.062ZM101.062 42H95.9375V44H101.062V42ZM96.9375 43V11.75H94.9375V43H96.9375ZM95.9375 12.75H101.062V10.75H95.9375V12.75ZM143.688 13.125L143.163 13.9767L143.173 13.9825L143.183 13.9882L143.688 13.125ZM148.938 18.625L148.059 19.1028L148.064 19.112L148.069 19.1211L148.938 18.625ZM148.938 35.875L148.049 35.4163L148.046 35.422L148.938 35.875ZM143.562 41.8125L143.037 40.9619L143.03 40.9663L143.562 41.8125ZM130.375 42.5L129.912 43.3863L129.92 43.3904L130.375 42.5ZM125.625 38.8125L126.372 38.1481L124.625 36.1823V38.8125H125.625ZM125.625 58V59H126.625V58H125.625ZM120.5 58H119.5V59H120.5V58ZM120.5 11.75V10.75H119.5V11.75H120.5ZM125.625 11.75H126.625V10.75H125.625V11.75ZM125.625 17.0625H124.625V20.4359L126.463 17.6075L125.625 17.0625ZM130 12.875L130.523 13.7273L130.528 13.7241L130 12.875ZM130.438 17.5625L129.91 16.7131L129.899 16.7198L130.438 17.5625ZM126.875 21.5625L125.985 21.1066L125.981 21.1153L126.875 21.5625ZM125.625 27.4375H124.625L124.625 27.4479L125.625 27.4375ZM125.688 33.4375L124.688 33.4479L124.691 33.7998L124.914 34.0718L125.688 33.4375ZM129.875 37.4375L129.294 38.2512L129.302 38.2568L129.309 38.2622L129.875 37.4375ZM144.312 32.6875L143.406 32.2646L143.402 32.2737L144.312 32.6875ZM144.375 21.4375L143.485 21.8938L143.49 21.9032L144.375 21.4375ZM136.375 12.125C138.911 12.125 141.165 12.7466 143.163 13.9767L144.212 12.2733C141.877 10.8367 139.256 10.125 136.375 10.125V12.125ZM143.183 13.9882C145.225 15.1825 146.849 16.8784 148.059 19.1028L149.816 18.1472C148.442 15.6216 146.567 13.6508 144.192 12.2618L143.183 13.9882ZM148.069 19.1211C149.302 21.2784 149.938 23.8511 149.938 26.875H151.938C151.938 23.5655 151.24 20.6383 149.806 18.1289L148.069 19.1211ZM149.938 26.875C149.938 30.16 149.297 32.9977 148.049 35.4164L149.826 36.3336C151.244 33.5856 151.938 30.4233 151.938 26.875H149.938ZM148.046 35.422C146.832 37.81 145.163 39.6474 143.037 40.9619L144.088 42.6631C146.545 41.1443 148.459 39.0233 149.829 36.328L148.046 35.422ZM143.03 40.9663C140.952 42.2743 138.577 42.9375 135.875 42.9375V44.9375C138.923 44.9375 141.673 44.184 144.095 42.6587L143.03 40.9663ZM135.875 42.9375C134.267 42.9375 132.589 42.5085 130.83 41.6096L129.92 43.3904C131.911 44.4082 133.9 44.9375 135.875 44.9375V42.9375ZM130.838 41.6138C129.109 40.7098 127.623 39.5548 126.372 38.1481L124.878 39.4769C126.294 41.0702 127.974 42.3735 129.912 43.3862L130.838 41.6138ZM124.625 38.8125V58H126.625V38.8125H124.625ZM125.625 57H120.5V59H125.625V57ZM121.5 58V11.75H119.5V58H121.5ZM120.5 12.75H125.625V10.75H120.5V12.75ZM124.625 11.75V17.0625H126.625V11.75H124.625ZM126.463 17.6075C127.459 16.0754 128.806 14.7811 130.523 13.7273L129.477 12.0227C127.528 13.2189 125.957 14.7162 124.787 16.5175L126.463 17.6075ZM130.528 13.7241C132.233 12.6635 134.172 12.125 136.375 12.125V10.125C133.828 10.125 131.517 10.7531 129.472 12.0259L130.528 13.7241ZM135.562 15.125C133.507 15.125 131.615 15.653 129.91 16.7132L130.965 18.4118C132.343 17.5553 133.868 17.125 135.562 17.125V15.125ZM129.899 16.7198C128.238 17.7811 126.934 19.2532 125.985 21.1066L127.765 22.0184C128.566 20.4551 129.637 19.2606 130.976 18.4052L129.899 16.7198ZM125.981 21.1153C125.065 22.9467 124.625 25.0641 124.625 27.4375H126.625C126.625 25.3109 127.018 23.5116 127.769 22.0097L125.981 21.1153ZM124.625 27.4479L124.688 33.4479L126.687 33.4271L126.625 27.4271L124.625 27.4479ZM124.914 34.0718C126.294 35.7534 127.753 37.1505 129.294 38.2512L130.456 36.6238C129.081 35.6411 127.747 34.3716 126.461 32.8032L124.914 34.0718ZM129.309 38.2622C130.948 39.3861 132.837 39.9375 134.938 39.9375V37.9375C133.205 37.9375 131.718 37.4889 130.441 36.6128L129.309 38.2622ZM134.938 39.9375C137.369 39.9375 139.501 39.3036 141.281 37.9926L140.094 36.3824C138.707 37.4047 137.006 37.9375 134.938 37.9375V39.9375ZM141.281 37.9926C143.005 36.7222 144.321 35.0861 145.223 33.1013L143.402 32.2737C142.638 33.9556 141.537 35.3195 140.094 36.3824L141.281 37.9926ZM145.219 33.1104C146.153 31.1077 146.625 29.0262 146.625 26.875H144.625C144.625 28.7238 144.222 30.5173 143.406 32.2646L145.219 33.1104ZM146.625 26.875C146.625 24.6941 146.179 22.7178 145.26 20.9718L143.49 21.9032C144.238 23.3238 144.625 24.9725 144.625 26.875H146.625ZM145.265 20.9812C144.353 19.2028 143.067 17.7761 141.413 16.7198L140.337 18.4052C141.683 19.2656 142.73 20.4222 143.485 21.8938L145.265 20.9812ZM141.413 16.7198C139.73 15.6443 137.766 15.125 135.562 15.125V17.125C137.442 17.125 139.02 17.564 140.337 18.4052L141.413 16.7198ZM177.688 12.4375L177.257 13.34L177.269 13.3458L177.281 13.3513L177.688 12.4375ZM182.5 15.9375L181.753 16.6019L183.5 18.5677V15.9375H182.5ZM182.5 11.75V10.75H181.5V11.75H182.5ZM187.625 11.75H188.625V10.75H187.625V11.75ZM187.625 43V44H188.625V43H187.625ZM182.5 43H181.5V44H182.5V43ZM182.5 37.6875H183.5V34.3141L181.662 37.1425L182.5 37.6875ZM178.062 42.0625L177.508 41.2304L177.499 41.2363L178.062 42.0625ZM164.438 41.9375L163.909 42.7865L163.921 42.7936L164.438 41.9375ZM159.125 36.25L158.243 36.7214L158.249 36.7331L159.125 36.25ZM159.125 18.9375L158.243 18.4669L158.237 18.4785L159.125 18.9375ZM164.562 13.1875L165.065 14.0519L165.077 14.045L164.562 13.1875ZM163.75 22.1875L162.851 21.7486L162.847 21.7576L163.75 22.1875ZM163.75 33.4375L162.851 33.8759L162.856 33.8847L163.75 33.4375ZM167.25 37.4375L166.695 38.2696L166.706 38.2765L167.25 37.4375ZM181.25 33.3125L182.144 33.7597L182.149 33.7513L181.25 33.3125ZM182.5 27.3125L181.5 27.3229L181.5 27.3314L182.5 27.3125ZM182.438 21.3125L183.437 21.3021L183.434 20.9589L183.22 20.6903L182.438 21.3125ZM178.25 17.5L177.718 18.3467L177.729 18.3533L178.25 17.5ZM172.25 12.125C173.874 12.125 175.54 12.5206 177.257 13.34L178.118 11.535C176.168 10.6044 174.21 10.125 172.25 10.125V12.125ZM177.281 13.3513C179.029 14.1281 180.516 15.2108 181.753 16.6019L183.247 15.2731C181.817 13.6642 180.096 12.4136 178.094 11.5237L177.281 13.3513ZM183.5 15.9375V11.75H181.5V15.9375H183.5ZM182.5 12.75H187.625V10.75H182.5V12.75ZM186.625 11.75V43H188.625V11.75H186.625ZM187.625 42H182.5V44H187.625V42ZM183.5 43V37.6875H181.5V43H183.5ZM181.662 37.1425C180.662 38.6809 179.285 40.0458 177.508 41.2304L178.617 42.8946C180.59 41.5792 182.172 40.0274 183.338 38.2325L181.662 37.1425ZM177.499 41.2363C175.844 42.365 173.939 42.9375 171.75 42.9375V44.9375C174.311 44.9375 176.615 44.26 178.626 42.8887L177.499 41.2363ZM171.75 42.9375C169.259 42.9375 167.001 42.3173 164.954 41.0814L163.921 42.7936C166.29 44.2243 168.908 44.9375 171.75 44.9375V42.9375ZM164.966 41.0886C162.912 39.8094 161.257 38.0434 160.001 35.7669L158.249 36.7331C159.66 39.2899 161.547 41.3156 163.909 42.7864L164.966 41.0886ZM160.007 35.7786C158.804 33.5281 158.188 30.903 158.188 27.875H156.188C156.188 31.1804 156.863 34.1386 158.243 36.7214L160.007 35.7786ZM158.188 27.875C158.188 24.5404 158.81 21.7258 160.013 19.3965L158.237 18.4785C156.857 21.1492 156.188 24.293 156.188 27.875H158.188ZM160.007 19.4081C161.259 17.0603 162.945 15.2853 165.065 14.0518L164.06 12.3232C161.596 13.7564 159.657 15.8147 158.243 18.4669L160.007 19.4081ZM165.077 14.045C167.204 12.7689 169.587 12.125 172.25 12.125V10.125C169.247 10.125 166.505 10.8561 164.048 12.33L165.077 14.045ZM173.188 15.125C170.764 15.125 168.637 15.7338 166.858 16.9973L168.017 18.6277C169.405 17.6412 171.111 17.125 173.188 17.125V15.125ZM166.858 16.9973C165.135 18.2218 163.798 19.811 162.851 21.7487L164.649 22.6263C165.452 20.9807 166.573 19.6532 168.017 18.6277L166.858 16.9973ZM162.847 21.7576C161.946 23.649 161.5 25.6927 161.5 27.875H163.5C163.5 25.974 163.887 24.226 164.653 22.6174L162.847 21.7576ZM161.5 27.875C161.5 30.0188 161.948 32.0239 162.851 33.8759L164.649 32.9991C163.886 31.4344 163.5 29.7312 163.5 27.875H161.5ZM162.856 33.8847C163.764 35.7016 165.046 37.1697 166.695 38.2696L167.805 36.6054C166.454 35.7053 165.403 34.5068 164.644 32.9903L162.856 33.8847ZM166.706 38.2765C168.424 39.3908 170.387 39.9375 172.562 39.9375V37.9375C170.738 37.9375 169.16 37.4842 167.794 36.5985L166.706 38.2765ZM172.562 39.9375C174.663 39.9375 176.567 39.3861 178.242 38.2696L177.133 36.6054C175.808 37.4889 174.295 37.9375 172.562 37.9375V39.9375ZM178.242 38.2696C179.899 37.1649 181.198 35.6517 182.144 33.7597L180.356 32.8653C179.552 34.4733 178.476 35.7101 177.133 36.6054L178.242 38.2696ZM182.149 33.7513C183.1 31.8025 183.544 29.6431 183.5 27.2936L181.5 27.3314C181.539 29.3986 181.15 31.2392 180.351 32.8737L182.149 33.7513ZM183.5 27.3021L183.437 21.3021L181.438 21.3229L181.5 27.3229L183.5 27.3021ZM183.22 20.6903C181.869 18.9897 180.388 17.6344 178.771 16.6467L177.729 18.3533C179.112 19.1989 180.423 20.3853 181.655 21.9347L183.22 20.6903ZM178.782 16.6534C177.147 15.6254 175.271 15.125 173.188 15.125V17.125C174.938 17.125 176.436 17.5412 177.718 18.3466L178.782 16.6534Z" fill="#3CD3C1"/>
</g>
<defs>
<filter id="filter0_d" x="0.9375" y="0.125" width="191.688" height="66.875" filterUnits="userSpaceOnUse" color-interpolation-filters="sRGB">
<feFlood flood-opacity="0" result="BackgroundImageFix"/>
<feColorMatrix in="SourceAlpha" type="matrix" values="0 0 0 0 0 0 0 0 0 0 0 0 0 0 0 0 0 0 127 0"/>
<feOffset dy="4"/>
<feGaussianBlur stdDeviation="2"/>
<feColorMatrix type="matrix" values="0 0 0 0 0 0 0 0 0 0 0 0 0 0 0 0 0 0 0.25 0"/>
<feBlend mode="normal" in2="BackgroundImageFix" result="effect1_dropShadow"/>
<feBlend mode="normal" in="SourceGraphic" in2="effect1_dropShadow" result="shape"/>
</filter>
</defs>
</svg>
