<svg width="183" height="57" viewBox="0 0 183 57" fill="none" xmlns="http://www.w3.org/2000/svg">
<path d="M39.875 0.125V42H34.25V11.6875L21.3125 25.5H19.8125L6.5625 11.6875V42H0.9375V0.125H2.6875L20.5625 19.3125L38.125 0.125H39.875ZM66.1875 10.125C69.3542 10.125 72.1667 10.875 74.625 12.375C77.0833 13.875 79 15.875 80.375 18.375C81.7917 20.875 82.5 23.6042 82.5 26.5625C82.5 29.5208 81.7917 32.25 80.375 34.75C79 37.2083 77.0833 39.1875 74.625 40.6875C72.1667 42.1875 69.3542 42.9375 66.1875 42.9375C63.0208 42.9375 60.2083 42.1875 57.75 40.6875C55.2917 39.1875 53.3542 37.2083 51.9375 34.75C50.5625 32.25 49.875 29.5208 49.875 26.5625C49.875 23.6042 50.5625 20.875 51.9375 18.375C53.3542 15.875 55.2917 13.875 57.75 12.375C60.2083 10.875 63.0208 10.125 66.1875 10.125ZM66.1875 15.125C63.9792 15.125 62.0417 15.6667 60.375 16.75C58.7083 17.7917 57.4167 19.1875 56.5 20.9375C55.625 22.6458 55.1875 24.5208 55.1875 26.5625C55.1875 28.5625 55.625 30.4375 56.5 32.1875C57.4167 33.8958 58.7083 35.2917 60.375 36.375C62.0417 37.4167 63.9792 37.9375 66.1875 37.9375C68.4375 37.9375 70.375 37.4167 72 36.375C73.6667 35.2917 74.9375 33.8958 75.8125 32.1875C76.7292 30.4375 77.1875 28.5625 77.1875 26.5625C77.1875 24.5208 76.7292 22.6458 75.8125 20.9375C74.9375 19.1875 73.6667 17.7917 72 16.75C70.375 15.6667 68.4375 15.125 66.1875 15.125ZM96.0625 10.75V17C97.2708 14.9167 98.7292 13.25 100.438 12C102.146 10.75 103.896 10.125 105.688 10.125C106.896 10.125 107.979 10.3333 108.938 10.75V16.6875C107.604 15.8958 106.271 15.5 104.938 15.5C102.812 15.5 101.083 16.25 99.75 17.75C98.4583 19.25 97.2292 21.0417 96.0625 23.125V42H90.9375V10.75H96.0625ZM131.375 10.125C134.083 10.125 136.521 10.7917 138.688 12.125C140.896 13.4167 142.646 15.25 143.938 17.625C145.271 19.9583 145.938 22.7083 145.938 25.875C145.938 29.2917 145.271 32.2917 143.938 34.875C142.646 37.4167 140.854 39.3958 138.562 40.8125C136.312 42.2292 133.75 42.9375 130.875 42.9375C129.083 42.9375 127.25 42.4583 125.375 41.5C123.542 40.5417 121.958 39.3125 120.625 37.8125V57H115.5V10.75H120.625V16.0625C121.708 14.3958 123.167 13 125 11.875C126.875 10.7083 129 10.125 131.375 10.125ZM130.562 15.125C128.688 15.125 126.979 15.6042 125.438 16.5625C123.938 17.5208 122.75 18.8542 121.875 20.5625C121.042 22.2292 120.625 24.1875 120.625 26.4375L120.688 32.4375C122.021 34.0625 123.417 35.3958 124.875 36.4375C126.333 37.4375 128.021 37.9375 129.938 37.9375C132.188 37.9375 134.104 37.3542 135.688 36.1875C137.271 35.0208 138.479 33.5208 139.312 31.6875C140.188 29.8125 140.625 27.875 140.625 25.875C140.625 23.8333 140.208 22.0208 139.375 20.4375C138.542 18.8125 137.375 17.5208 135.875 16.5625C134.375 15.6042 132.604 15.125 130.562 15.125ZM167.25 10.125C169.042 10.125 170.854 10.5625 172.688 11.4375C174.562 12.2708 176.167 13.4375 177.5 14.9375V10.75H182.625V42H177.5V36.6875C176.417 38.3542 174.938 39.8125 173.062 41.0625C171.229 42.3125 169.125 42.9375 166.75 42.9375C164.083 42.9375 161.646 42.2708 159.438 40.9375C157.229 39.5625 155.458 37.6667 154.125 35.25C152.833 32.8333 152.188 30.0417 152.188 26.875C152.188 23.4167 152.833 20.4375 154.125 17.9375C155.458 15.4375 157.271 13.5208 159.562 12.1875C161.854 10.8125 164.417 10.125 167.25 10.125ZM168.188 15.125C165.938 15.125 164.021 15.6875 162.438 16.8125C160.854 17.9375 159.625 19.3958 158.75 21.1875C157.917 22.9375 157.5 24.8333 157.5 26.875C157.5 28.875 157.917 30.7292 158.75 32.4375C159.583 34.1042 160.75 35.4375 162.25 36.4375C163.792 37.4375 165.562 37.9375 167.562 37.9375C169.479 37.9375 171.188 37.4375 172.688 36.4375C174.188 35.4375 175.375 34.0625 176.25 32.3125C177.125 30.5208 177.542 28.5208 177.5 26.3125L177.438 20.3125C176.146 18.6875 174.75 17.4167 173.25 16.5C171.792 15.5833 170.104 15.125 168.188 15.125Z" fill="black"/>
</svg>
